<svg width="22" height="16" viewBox="0 0 22 16" fill="none" xmlns="http://www.w3.org/2000/svg">
<path fill-rule="evenodd" clip-rule="evenodd" d="M10.3654 2.39655C9.85049 2.42291 9.41171 2.02688 9.38534 1.51198C9.35897 0.997079 9.75501 0.558297 10.2699 0.53193C13.1312 0.385412 16.0514 1.52065 18.2037 3.12623C19.2151 3.88066 20.0579 4.73761 20.6478 5.61097C21.238 6.48463 21.5749 7.37439 21.5749 8.19428C21.5749 9.1697 21.0937 10.2491 20.2865 11.2709C19.9669 11.6754 19.3798 11.7443 18.9752 11.4247C18.5707 11.1051 18.5018 10.5181 18.8214 10.1135C19.2466 9.57529 19.7078 8.90226 19.7078 8.19428C19.7078 7.87029 19.5642 7.34227 19.1007 6.65607C18.6484 5.98654 17.9628 5.27582 17.0873 4.62277C15.1839 3.20288 12.7635 2.27374 10.3654 2.39655Z" fill="#656468"/>
<path fill-rule="evenodd" clip-rule="evenodd" d="M3.37119 13.2623C5.39397 14.7713 8.09084 15.87 10.7875 15.87C12.828 15.87 14.8637 15.2405 16.6005 14.2903L17.9068 15.5966C18.2713 15.9611 18.8624 15.9611 19.227 15.5966C19.5915 15.232 19.5915 14.6409 19.227 14.2764L5.22403 0.273424C4.85946 -0.0911415 4.26838 -0.0911415 3.90382 0.273424C3.53925 0.63799 3.53925 1.22907 3.90382 1.59363L4.61322 2.30304C4.17895 2.55788 3.76332 2.83371 3.37119 3.12623C2.35984 3.88066 1.51704 4.73761 0.927088 5.61097C0.336928 6.48463 0 7.37439 0 8.19428C0 9.01417 0.336928 9.90393 0.927088 10.7776C1.51704 11.651 2.35984 12.5079 3.37119 13.2623ZM9.12784 8.19429C9.12784 9.11087 9.87088 9.8539 10.7875 9.8539C11.1736 9.8539 11.5286 9.72265 11.811 9.50086L9.48085 7.17067C9.25918 7.4531 9.12784 7.80847 9.12784 8.19429ZM10.7875 11.721C8.83973 11.721 7.26079 10.142 7.26079 8.19429C7.26079 7.29195 7.60006 6.46912 8.15631 5.84613L5.98475 3.67456C5.45271 3.95824 4.94975 4.27799 4.48756 4.62277C3.61211 5.27582 2.9265 5.98654 2.47424 6.65607C2.01071 7.34227 1.86706 7.87029 1.86706 8.19428C1.86706 8.51828 2.01071 9.0463 2.47424 9.7325C2.9265 10.402 3.61211 11.1127 4.48756 11.7658C6.25549 13.0846 8.57007 14.0029 10.7875 14.0029C12.2803 14.0029 13.8215 13.5869 15.2156 12.9054L13.1357 10.8255C12.5127 11.3816 11.6894 11.721 10.7875 11.721Z" fill="#656468"/>
</svg>
