<svg width="25" height="26" viewBox="0 0 25 26" fill="none" xmlns="http://www.w3.org/2000/svg">
<path d="M12.5 0.5C13.1903 0.5 13.7499 1.05962 13.7499 1.74994L13.7499 11.7499L23.7499 11.75C24.4403 11.75 24.9999 12.3096 24.9999 12.9999C24.9999 13.6903 24.4403 14.2499 23.7499 14.2499L13.7499 14.2485L13.7499 24.2501C13.7499 24.9404 13.1903 25.5 12.5 25.5C11.8097 25.5 11.2501 24.9404 11.2501 24.2501L11.2499 14.2485L1.24993 14.2499C0.55961 14.2499 0 13.6903 0 12.9999C0 12.3096 0.55961 11.75 1.24993 11.75L11.2499 11.7499L11.2501 1.74994C11.2501 1.05962 11.8097 0.5 12.5 0.5Z" fill="#656468"/>
</svg>
