<svg width="35" height="38" viewBox="0 0 35 38" fill="none" xmlns="http://www.w3.org/2000/svg">
<path fill-rule="evenodd" clip-rule="evenodd" d="M11.6276 6.64075H11.2462C9.61561 6.64075 8.49594 6.64208 7.62796 6.713C6.78001 6.78228 6.32451 6.90932 5.99485 7.07728C5.24123 7.46127 4.62852 8.07399 4.24453 8.8276C4.07657 9.15726 3.94953 9.61276 3.88025 10.4607C3.80933 11.3287 3.808 12.4484 3.808 14.0789V26.2851C3.808 27.9156 3.80933 29.0353 3.88025 29.9033C3.94953 30.7512 4.07657 31.2067 4.24453 31.5364C4.62852 32.29 5.24123 32.9027 5.99485 33.2867C6.32451 33.4547 6.78001 33.5817 7.62796 33.651C8.49594 33.7219 9.61561 33.7233 11.2462 33.7233H23.4524C25.0829 33.7233 26.2026 33.7219 27.0705 33.651C27.9185 33.5817 28.374 33.4547 28.7037 33.2867C29.4573 32.9027 30.07 32.29 30.454 31.5364C30.6219 31.2067 30.749 30.7512 30.8183 29.9033C30.8892 29.0353 30.8905 27.9156 30.8905 26.2851V14.0789C30.8905 12.4484 30.8892 11.3287 30.8183 10.4607C30.749 9.61276 30.6219 9.15726 30.454 8.8276C30.07 8.07399 29.4573 7.46127 28.7037 7.07728C28.374 6.90932 27.9185 6.78228 27.0705 6.713C26.2026 6.64208 25.0829 6.64075 23.4524 6.64075H23.0709H11.6276ZM23.0532 3.20775H23.4524L23.5243 3.20775C25.0654 3.20773 26.3258 3.20772 27.3501 3.29141C28.4104 3.37803 29.3679 3.56281 30.2622 4.01846C31.6618 4.73159 32.7997 5.86948 33.5128 7.26906C33.9684 8.16333 34.1532 9.1209 34.2398 10.1812C34.3235 11.2055 34.3235 12.4659 34.3235 14.007V14.0789V26.2851V26.357C34.3235 27.8981 34.3235 29.1585 34.2398 30.1829C34.1532 31.2431 33.9684 32.2007 33.5128 33.0949C32.7997 34.4945 31.6618 35.6324 30.2622 36.3455C29.3679 36.8012 28.4104 36.986 27.3501 37.0726C26.3258 37.1563 25.0654 37.1563 23.5243 37.1562H23.4524H11.2462H11.1742C9.63311 37.1563 8.37272 37.1563 7.3484 37.0726C6.28815 36.986 5.33058 36.8012 4.43631 36.3455C3.03673 35.6324 1.89883 34.4945 1.18571 33.0949C0.730059 32.2007 0.545283 31.2431 0.458657 30.1829C0.374968 29.1586 0.374983 27.8982 0.375001 26.3571V26.2851V14.0789V14.007C0.374983 12.4659 0.374968 11.2055 0.458657 10.1812C0.545283 9.1209 0.730059 8.16333 1.18571 7.26906C1.89883 5.86948 3.03673 4.73159 4.43631 4.01846C5.33058 3.56281 6.28815 3.37803 7.3484 3.29141C8.37272 3.20772 9.63311 3.20773 11.1742 3.20775L11.2462 3.20775H11.6452C11.6735 2.54409 11.7473 2.0953 11.9394 1.71829C12.2137 1.17999 12.6513 0.742339 13.1896 0.468062C13.8016 0.15625 14.6027 0.15625 16.2049 0.15625H18.4936C20.0958 0.15625 20.8969 0.15625 21.5089 0.468062C22.0472 0.742339 22.4848 1.17999 22.7591 1.71829C22.9512 2.0953 23.0249 2.54409 23.0532 3.20775ZM15.442 10.8366C14.494 10.8366 13.7255 11.6051 13.7255 12.5531C13.7255 13.5011 14.494 14.2696 15.442 14.2696H24.9781C25.9261 14.2696 26.6946 13.5011 26.6946 12.5531C26.6946 11.6051 25.9261 10.8366 24.9781 10.8366H15.442ZM13.7255 20.182C13.7255 19.234 14.494 18.4655 15.442 18.4655H24.9781C25.9261 18.4655 26.6946 19.234 26.6946 20.182C26.6946 21.13 25.9261 21.8985 24.9781 21.8985H15.442C14.494 21.8985 13.7255 21.13 13.7255 20.182ZM15.442 26.0944C14.494 26.0944 13.7255 26.8629 13.7255 27.8109C13.7255 28.7589 14.494 29.5274 15.442 29.5274H21.1637C22.1117 29.5274 22.8802 28.7589 22.8802 27.8109C22.8802 26.8629 22.1117 26.0944 21.1637 26.0944H15.442ZM7.81316 12.5531C7.81316 11.6051 8.58166 10.8366 9.52965 10.8366C10.4776 10.8366 11.2462 11.6051 11.2462 12.5531C11.2462 13.5011 10.4776 14.2696 9.52965 14.2696C8.58166 14.2696 7.81316 13.5011 7.81316 12.5531ZM9.52965 18.4655C8.58166 18.4655 7.81316 19.234 7.81316 20.182C7.81316 21.1299 8.58166 21.8985 9.52965 21.8985C10.4776 21.8985 11.2462 21.1299 11.2462 20.182C11.2462 19.234 10.4776 18.4655 9.52965 18.4655ZM7.81316 27.8108C7.81316 26.8628 8.58166 26.0943 9.52965 26.0943C10.4776 26.0943 11.2462 26.8628 11.2462 27.8108C11.2462 28.7588 10.4776 29.5273 9.52965 29.5273C8.58166 29.5273 7.81316 28.7588 7.81316 27.8108Z" fill="#656468"/>
</svg>
