<svg width="35" height="37" viewBox="0 0 35 37" fill="none" xmlns="http://www.w3.org/2000/svg">
<path d="M17.5294 23.3842V19.5018M17.5294 23.3842V27.2665M17.5294 23.3842H29.1765C31.3207 23.3842 33.0588 21.6461 33.0588 19.5018M17.5294 23.3842H5.88235C3.73819 23.3842 2 21.6461 2 19.5018M33.0588 19.5018V31.1489C33.0588 33.2931 31.3207 35.0312 29.1765 35.0312H5.88235C3.73819 35.0312 2 33.2931 2 31.1489V19.5018M33.0588 19.5018V11.7371C33.0588 9.59297 31.3207 7.85478 29.1765 7.85478H5.88235C3.73819 7.85478 2 9.59297 2 11.7371V19.5018M23.3529 7.85478V5.9136C23.3529 3.76944 21.6148 2.03125 19.4706 2.03125H15.5882C13.4441 2.03125 11.7059 3.76944 11.7059 5.9136V7.85478" stroke="#656468" stroke-width="3" stroke-linecap="round" stroke-linejoin="round"/>
</svg>
