<svg width="36" height="35" viewBox="0 0 36 35" fill="none" xmlns="http://www.w3.org/2000/svg">
<path fill-rule="evenodd" clip-rule="evenodd" d="M4.51944 1.04918C6.01583 0.24938 7.48803 0 10.5791 0H16.2518C17.2186 0 18.0025 0.783502 18.0025 1.75C18.0025 2.7165 17.2186 3.5 16.2518 3.5H10.5791C7.6494 3.5 6.88851 3.75187 6.17045 4.13566C5.50496 4.49136 4.9932 5.00284 4.63735 5.66783C4.25341 6.3853 4.0014 7.14556 4.0014 10.0734V24.9266C4.0014 27.8544 4.25341 28.6147 4.63735 29.3322C4.9932 29.9972 5.50496 30.5086 6.17045 30.8643C6.88851 31.2481 7.6494 31.5 10.5791 31.5H16.2518C17.2186 31.5 18.0025 32.2835 18.0025 33.25C18.0025 34.2165 17.2186 35 16.2518 35H10.5791C7.48803 35 6.01583 34.7506 4.51944 33.9508C3.24381 33.269 2.23217 32.258 1.5499 30.983C0.749536 29.4874 0.5 28.0158 0.5 24.9266V10.0734C0.5 6.98416 0.749536 5.51265 1.5499 4.01699C2.23217 2.74201 3.24381 1.73099 4.51944 1.04918Z" fill="#F34F4E"/>
<path fill-rule="evenodd" clip-rule="evenodd" d="M26.4753 10.2274C27.159 9.54401 28.2675 9.54401 28.9511 10.2274L34.9872 16.261C35.3156 16.5892 35.5 17.0343 35.5 17.4985C35.5 17.9626 35.3156 18.4077 34.9872 18.7359L28.9512 24.7696C28.2675 25.453 27.159 25.453 26.4753 24.7696C25.7916 24.0862 25.7916 22.9781 26.4753 22.2947L29.5227 19.2485H15.8628C14.8959 19.2485 14.1121 18.465 14.1121 17.4985C14.1121 16.532 14.8959 15.7485 15.8628 15.7485H29.5227L26.4753 12.7023C25.7916 12.0189 25.7916 10.9109 26.4753 10.2274Z" fill="#F34F4E"/>
</svg>
