<svg width="25" height="26" viewBox="0 0 25 26" fill="none" xmlns="http://www.w3.org/2000/svg">
<path d="M21.5485 1.14334C21.3601 0.762153 20.9673 0.5 20.5133 0.5C20.0353 0.5 19.6251 0.790641 19.4499 1.20486C19.3916 1.34293 19.3593 1.49473 19.3593 1.65407V3.95918H17.1809C16.7029 3.95918 16.2928 4.24982 16.1176 4.66404C16.0592 4.80211 16.0269 4.95391 16.0269 5.11325C16.0269 5.75063 16.5436 6.26736 17.1809 6.26736H19.3593V8.31607C19.3593 8.95344 19.8759 9.47014 20.5133 9.47014C20.832 9.47014 21.1205 9.34094 21.3294 9.13209C21.5382 8.92325 21.6674 8.63476 21.6674 8.31609L21.6674 6.26736H23.8459C24.1646 6.26736 24.4531 6.13816 24.662 5.92931C24.8708 5.72047 25 5.43198 25 5.11331C25 4.96625 24.9725 4.82556 24.9223 4.69621C24.7551 4.26495 24.3362 3.95918 23.8459 3.95918H21.6674V1.65407C21.6674 1.4707 21.6246 1.29731 21.5485 1.14334Z" fill="#656468"/>
<path d="M7.04523 0.500031C7.68261 0.500031 8.19931 1.01673 8.19931 1.6541V2.42849H12.8197C13.457 2.42849 13.9737 2.94519 13.9737 3.58257C13.9737 4.21994 13.457 4.73664 12.8197 4.73664H8.19931V5.74793C8.19931 6.38531 7.68261 6.90201 7.04523 6.90201C6.40786 6.90201 5.89116 6.38531 5.89116 5.74793V4.80147C5.22164 4.89249 4.64759 5.08907 4.198 5.45087C3.57241 5.95429 2.94096 6.98644 2.94096 9.30815L2.94098 10.1205H16.9621C17.5995 10.1205 18.1162 10.6372 18.1162 11.2746C18.1162 11.912 17.5995 12.4287 16.9621 12.4287H2.94106L2.94128 19.3164C2.94128 20.4721 3.18764 21.426 3.70929 22.0734C4.19332 22.674 5.06155 23.1919 6.73716 23.1919H17.4198C18.8379 23.1919 19.803 22.8165 20.4078 22.2464C21.0019 21.6865 21.4057 20.7902 21.4057 19.4108V12.4685C21.4057 11.8311 21.9224 11.3145 22.5598 11.3145C23.1972 11.3145 23.7139 11.8311 23.7139 12.4685V19.4108C23.7139 21.2523 23.1606 22.8237 21.991 23.926C20.8322 25.0183 19.2274 25.5 17.4198 25.5H6.73716C4.54202 25.5 2.93529 24.7915 1.91203 23.5216C0.926395 22.2984 0.633145 20.7376 0.63314 19.3164L0.632812 9.30823C0.632812 6.58033 1.38776 4.74964 2.75094 3.65266C3.71491 2.87693 4.85205 2.58044 5.89116 2.4776V1.6541C5.89116 1.01673 6.40786 0.500031 7.04523 0.500031Z" fill="#656468"/>
<path d="M18.5644 18.4524C18.5644 19.5147 17.7032 20.3758 16.6409 20.3758C15.5786 20.3758 14.7174 19.5147 14.7174 18.4524C14.7174 17.3901 15.5786 16.5289 16.6409 16.5289C17.7032 16.5289 18.5644 17.3901 18.5644 18.4524Z" fill="#656468"/>
</svg>
