<svg width="38" height="35" viewBox="0 0 38 35" fill="none" xmlns="http://www.w3.org/2000/svg">
<path fill-rule="evenodd" clip-rule="evenodd" d="M10.2855 4.36889C10.9133 4.36889 11.0024 4.3772 11.0723 4.39281C11.1797 4.41679 11.283 4.45847 11.3785 4.51636C11.4406 4.55403 11.5127 4.61077 11.9839 5.05426L14.0201 6.97053L14.1012 7.04699C14.4641 7.38928 14.8115 7.71696 15.2194 7.95817C15.5769 8.16963 15.9612 8.3247 16.3602 8.41856C16.8154 8.52562 17.2786 8.52506 17.7625 8.52447L17.8706 8.52438H25.6321C27.1421 8.52438 28.179 8.5257 28.9828 8.59594C29.7681 8.66455 30.1899 8.79037 30.4952 8.95672C31.1931 9.33702 31.7605 9.94384 32.1161 10.6902C32.3535 11.1883 32.4619 11.5432 32.5002 12.9501C32.5257 13.8886 33.2578 14.6273 34.1353 14.6C35.0128 14.5727 35.7036 13.7898 35.678 12.8513C35.6333 11.2063 35.4893 10.2809 34.9489 9.14665C34.2884 7.76053 33.2347 6.63358 31.9386 5.92731C31.1104 5.47604 30.2236 5.29304 29.2417 5.20725C28.2931 5.12436 27.1259 5.12438 25.6987 5.1244H25.6987L17.8706 5.1244C17.2101 5.1244 17.1165 5.11521 17.0431 5.09794C16.9434 5.07448 16.8473 5.03571 16.7579 4.98284C16.6922 4.94395 16.6162 4.88474 16.1204 4.4181L14.0842 2.50184L14.0071 2.42914C13.6621 2.10379 13.332 1.79243 12.9467 1.5588C12.5649 1.32724 12.1517 1.16051 11.722 1.06457C11.2885 0.967785 10.8483 0.968295 10.3884 0.968829L10.2855 0.968908L10.2223 0.968907C8.86625 0.968889 7.75716 0.968875 6.85439 1.04391C5.92041 1.12154 5.07516 1.287 4.27973 1.69579C2.86968 2.42044 1.73229 3.63682 1.05468 5.14478C0.672439 5.99544 0.517724 6.89939 0.445135 7.89822C0.374972 8.86367 0.374985 10.0498 0.375001 11.5V11.5V22.3844V22.3845C0.374983 23.9108 0.374968 25.159 0.452472 26.1735C0.532694 27.2235 0.703811 28.1719 1.12578 29.0576C1.78619 30.4437 2.83997 31.5706 4.13609 32.2769C4.96425 32.7282 5.85104 32.9112 6.83291 32.997C7.78152 33.0799 8.94873 33.0798 10.3759 33.0798H15.1094C15.9873 33.0798 16.699 32.3187 16.699 31.3798C16.699 30.441 15.9873 29.6798 15.1094 29.6798H10.4425C8.93253 29.6798 7.89563 29.6785 7.0918 29.6083C6.30654 29.5397 5.88471 29.4139 5.57942 29.2475C4.88151 28.8672 4.31409 28.2604 3.95849 27.514C3.80294 27.1875 3.68529 26.7364 3.62113 25.8966C3.55546 25.037 3.55422 23.9281 3.55422 22.3132V11.5676C3.55422 10.0333 3.55534 8.9798 3.6148 8.16167C3.67292 7.36196 3.77962 6.93031 3.9202 6.61744C4.28507 5.80546 4.89751 5.15049 5.65677 4.76029C5.94932 4.60994 6.35295 4.49583 7.10074 4.43367C7.86574 4.37009 8.85088 4.36889 10.2855 4.36889ZM28.6347 16.0799C31.0744 16.0799 33.0503 18.1931 33.0503 20.8022C33.0503 23.4112 31.0744 25.5244 28.6347 25.5244C26.1951 25.5244 24.2192 23.4112 24.2192 20.8022C24.2192 18.1931 26.1951 16.0799 28.6347 16.0799ZM19.8036 33.7823V32.6077C19.8036 28.4757 25.6873 27.2952 28.6347 27.2952C31.5821 27.2952 37.4659 28.4757 37.4659 32.6077V33.7823C37.4659 34.4376 36.9692 34.9688 36.3565 34.9688H20.913C20.3003 34.9688 19.8036 34.4376 19.8036 33.7823Z" fill="#656468"/>
</svg>
