<svg width="26" height="27" viewBox="0 0 26 27" fill="none" xmlns="http://www.w3.org/2000/svg">
<path fill-rule="evenodd" clip-rule="evenodd" d="M16.2983 6.89691L3.09948 20.0958C2.79819 20.397 2.62893 20.8057 2.62893 21.2318L2.62893 23.725C2.62893 23.8057 2.69431 23.8711 2.77498 23.8711H5.26823C5.69431 23.8711 6.10295 23.7018 6.40424 23.4005L19.6031 10.2017L16.2983 6.89691ZM18.1572 5.03797L21.462 8.34274L23.1144 6.69036C23.4566 6.34814 23.4566 5.79329 23.1144 5.45107L21.0489 3.38559C20.7067 3.04337 20.1518 3.04337 19.8096 3.38559L18.1572 5.03797ZM1.24054 18.2368L17.9507 1.52666C19.3196 0.15778 21.5389 0.15778 22.9078 1.52666L24.9733 3.59214C26.3422 4.96102 26.3422 7.18041 24.9733 8.54929L8.26318 25.2594C7.46887 26.0538 6.39155 26.5 5.26823 26.5L2.77498 26.5C1.2424 26.5 6.77117e-07 25.2576 3.69337e-07 23.725L0 21.2318C-1.84668e-07 20.1084 0.446236 19.0311 1.24054 18.2368Z" fill="#656468"/>
</svg>
