<svg width="62" height="55" viewBox="0 0 62 55" fill="none" xmlns="http://www.w3.org/2000/svg">
<rect width="61.3333" height="55" rx="4" fill="#F0E5FF"/>
<path fill-rule="evenodd" clip-rule="evenodd" d="M29.3498 8.54684C30.0767 7.81772 31.2552 7.81772 31.9821 8.54684L44.3906 20.9936C45.1174 21.7228 45.1174 22.9049 44.3906 23.634C43.6637 24.3631 42.4852 24.3631 41.7583 23.634L32.5272 14.3744V36.8351C32.5272 37.8662 31.6939 38.7021 30.666 38.7021C29.638 38.7021 28.8047 37.8662 28.8047 36.8351V14.3744L19.5736 23.634C18.8467 24.3631 17.6682 24.3631 16.9414 23.634C16.2145 22.9049 16.2145 21.7228 16.9414 20.9936L29.3498 8.54684ZM14.3281 45.133C14.3281 44.1018 15.1614 43.266 16.1894 43.266H45.1425C46.1705 43.266 47.0038 44.1018 47.0038 45.133C47.0038 46.1641 46.1705 47 45.1425 47H16.1894C15.1614 47 14.3281 46.1641 14.3281 45.133Z" fill="#656468"/>
</svg>
