<svg width="41" height="31" viewBox="0 0 41 31" fill="none" xmlns="http://www.w3.org/2000/svg">
<path d="M2.18708 4.28041L30.7776 4.2804C31.7784 4.2804 32.5897 3.46911 32.5897 2.46833C32.5897 1.46754 31.7784 0.65625 30.7776 0.65625L2.18708 0.656257C1.18629 0.656257 0.375 1.46755 0.375 2.46833C0.375 3.46912 1.18629 4.28041 2.18708 4.28041Z" fill="#656468"/>
<path d="M2.18708 10.7233C1.18629 10.7233 0.375 11.5346 0.375 12.5354C0.375 13.5362 1.18629 14.3475 2.18708 14.3475L30.7776 14.3475C31.7784 14.3475 32.5897 13.5362 32.5897 12.5354C32.5897 11.5346 31.7784 10.7233 30.7776 10.7233L2.18708 10.7233Z" fill="#656468"/>
<path d="M0.375 22.6025C0.375 21.6017 1.18629 20.7904 2.18708 20.7904H12.6569C13.6576 20.7904 14.4689 21.6017 14.4689 22.6025C14.4689 23.6033 13.6576 24.4146 12.6569 24.4146H2.18708C1.18629 24.4146 0.375 23.6033 0.375 22.6025Z" fill="#656468"/>
<path d="M40.0864 17.9525C40.8542 17.1482 40.8245 15.8737 40.0202 15.1059C39.2158 14.3381 37.9413 14.3677 37.1735 15.1721L27.0986 25.7268L21.9656 20.3495C21.1978 19.5451 19.9233 19.5155 19.119 20.2833C18.3146 21.0511 18.285 22.3255 19.0528 23.1299L25.6421 30.0331C26.0221 30.4311 26.5483 30.6562 27.0986 30.6562C27.6488 30.6562 28.1751 30.4311 28.555 30.0331L40.0864 17.9525Z" fill="#656468"/>
</svg>
