<svg width="405" height="42" viewBox="0 0 405 42" fill="none" xmlns="http://www.w3.org/2000/svg">
<path d="M251.664 32.5993L244.244 22.7209H240.579V32.5993H236.958V10.2501H240.579V19.4132H244.2L251.664 10.2501H255.821L247.105 20.8436L256 32.5993H251.664Z" fill="#3E3E3F"/>
<path d="M211.117 10.2501H214.738V27.3249L226.493 10.2501H230.159V32.5993H226.538V15.5245L214.782 32.5993H211.117V10.2501Z" fill="#3E3E3F"/>
<path d="M187.88 10.2501H206.832V13.5577H199.144V32.5993H195.568V13.5577H187.88V10.2501Z" fill="#3E3E3F"/>
<path d="M181.736 32.5993L174.316 22.7209H170.651V32.5993H167.03V10.2501H170.651V19.4132H174.271L181.736 10.2501H185.893L177.177 20.8436L186.071 32.5993H181.736Z" fill="#3E3E3F"/>
<path d="M148.761 29.7832C153.32 29.7832 156.628 26.2967 156.628 21.4246C156.628 16.5525 153.32 13.066 148.761 13.066C144.202 13.066 140.894 16.5525 140.894 21.4246C140.894 26.2967 144.202 29.7832 148.761 29.7832ZM148.269 33.225C142.011 33.225 137.229 28.2188 137.229 21.4246C137.229 14.6305 142.011 9.62424 148.269 9.62424C151.89 9.62424 154.84 11.2781 156.628 14.0494V10.25H160.248V32.5992H156.628V28.7999C154.84 31.5712 151.89 33.225 148.269 33.225Z" fill="#3E3E3F"/>
<path d="M121.508 29.8279C126.112 29.8279 129.286 26.252 129.286 21.4246C129.286 16.5972 126.112 13.0213 121.508 13.0213C116.905 13.0213 113.731 16.5972 113.731 21.4246C113.731 26.252 116.905 29.8279 121.508 29.8279ZM122 33.225C118.424 33.225 115.519 31.5712 113.731 28.7999V41.5389H110.11V10.25H113.731V14.0494C115.519 11.2781 118.424 9.62424 122 9.62424C128.213 9.62424 132.951 14.6305 132.951 21.4246C132.951 28.2188 128.213 33.225 122 33.225Z" fill="#3E3E3F"/>
<path d="M103.26 32.5993V10.2501H89.1955L84.4863 17.7767V32.5993H88.1069V13.6024H99.6391V32.5993H103.26Z" fill="#3E3E3F"/>
<path d="M25.1589 19.2344H39.5965C39.4177 15.6138 36.557 12.9766 32.6236 12.9766C28.7348 12.9766 25.9635 15.4797 25.1589 19.2344ZM32.8471 33.225C25.9635 33.225 21.2702 28.3082 21.2702 21.514C21.2702 14.6305 26.0976 9.62424 32.713 9.62424C38.9707 9.62424 43.3065 14.0494 43.3065 20.4413C43.3065 21.1117 43.2618 21.7822 43.1724 22.4527H24.9801C25.3824 26.9225 28.4219 29.8279 32.8918 29.8279C35.7078 29.8279 37.898 28.6658 39.5071 26.1626L42.3678 28.3082C40.1329 31.5265 36.9146 33.225 32.8471 33.225Z" fill="#3E3E3F"/>
<path d="M3.39708 22.4974V29.4704H10.37C12.4262 29.4704 14.0353 28.2188 14.0353 25.9839C14.0353 23.7937 12.4262 22.4974 10.37 22.4974H3.39708ZM3.39708 13.379V19.4579H10.0124C11.9792 19.4579 13.186 18.2064 13.186 16.4184C13.186 14.6752 11.9792 13.379 10.0124 13.379H3.39708ZM10.4594 32.5993H0V10.2501H10.1018C13.9906 10.2501 16.6278 12.6191 16.6278 16.1056C16.6278 18.3405 15.5103 19.9496 13.6777 20.7542C16.0467 21.5141 17.5218 23.5255 17.5218 26.3415C17.5218 30.1409 14.7505 32.5993 10.4594 32.5993Z" fill="#3E3E3F"/>
<path d="M86.3584 10.0488H81.7715L67.476 32.5993H72.107L86.3584 10.0488Z" fill="#7927E0"/>
<path d="M71.0302 21.8036C71.0302 15.1431 66.6932 10.4921 60.3912 10.4921C56.5455 10.4921 53.5455 12.2357 51.8099 15.4089C52.0757 8.16052 54.8502 5.17257 61.7321 4.5927L69.1094 3.9484L68.8839 0.461121L61.418 1.12958C52.12 1.97926 48.3226 6.85178 48.3226 17.8492V19.2787C48.3226 27.9043 52.7038 33.2238 59.8556 33.2238C61.5411 33.241 63.2116 32.9064 64.7603 32.2413L71.0181 22.3714C71.0262 22.1781 71.0302 21.9808 71.0302 21.8036ZM59.8556 29.8574C55.426 29.8574 52.3012 26.5473 52.3012 21.8036C52.3012 17.0599 55.43 13.7498 59.8556 13.7498C64.2811 13.7498 67.41 17.0559 67.41 21.8036C67.41 26.5513 64.2811 29.8574 59.8556 29.8574Z" fill="#3E3E3F"/>
<path d="M267.898 38.6477V31.0909H269.375C269.913 30.5303 270.409 29.7917 270.864 28.875C271.318 27.9508 271.697 26.7614 272 25.3068C272.311 23.8447 272.511 22.0189 272.602 19.8295L273.068 9.72727H286.375V31.0909H289.102V38.5909H287.08V33H269.92V38.6477H267.898ZM271.92 31.0909H284.352V11.6364H275L274.636 19.8295C274.553 21.6098 274.398 23.197 274.17 24.5909C273.943 25.9773 273.64 27.2083 273.261 28.2841C272.89 29.3523 272.443 30.2879 271.92 31.0909ZM312.764 21.3636C312.764 23.7879 312.332 25.8977 311.469 27.6932C310.605 29.4811 309.416 30.8674 307.901 31.8523C306.393 32.8295 304.658 33.3182 302.696 33.3182C300.734 33.3182 298.995 32.8295 297.48 31.8523C295.973 30.8674 294.787 29.4811 293.923 27.6932C293.067 25.8977 292.639 23.7879 292.639 21.3636C292.639 18.9394 293.067 16.8333 293.923 15.0455C294.787 13.25 295.976 11.8636 297.491 10.8864C299.007 9.90151 300.741 9.40909 302.696 9.40909C304.658 9.40909 306.393 9.90151 307.901 10.8864C309.416 11.8636 310.605 13.25 311.469 15.0455C312.332 16.8333 312.764 18.9394 312.764 21.3636ZM310.696 21.3636C310.696 19.2803 310.348 17.4962 309.651 16.0114C308.954 14.5189 308.003 13.3788 306.798 12.5909C305.594 11.803 304.226 11.4091 302.696 11.4091C301.173 11.4091 299.81 11.803 298.605 12.5909C297.401 13.3788 296.446 14.5152 295.741 16C295.045 17.4848 294.696 19.2727 294.696 21.3636C294.696 23.447 295.045 25.2311 295.741 26.7159C296.438 28.2008 297.389 29.3409 298.594 30.1364C299.798 30.9242 301.166 31.3182 302.696 31.3182C304.226 31.3182 305.594 30.9242 306.798 30.1364C308.01 29.3485 308.965 28.2121 309.662 26.7273C310.359 25.2348 310.704 23.447 310.696 21.3636ZM336.131 17H333.994C333.835 16.2045 333.547 15.4697 333.131 14.7955C332.722 14.1136 332.206 13.5189 331.585 13.0114C330.964 12.5038 330.259 12.1098 329.472 11.8295C328.684 11.5492 327.831 11.4091 326.915 11.4091C325.445 11.4091 324.104 11.7917 322.892 12.5568C321.688 13.322 320.722 14.447 319.994 15.9318C319.275 17.4091 318.915 19.2197 318.915 21.3636C318.915 23.5227 319.275 25.3409 319.994 26.8182C320.722 28.2955 321.688 29.4167 322.892 30.1818C324.104 30.9394 325.445 31.3182 326.915 31.3182C327.831 31.3182 328.684 31.178 329.472 30.8977C330.259 30.6174 330.964 30.2273 331.585 29.7273C332.206 29.2197 332.722 28.625 333.131 27.9432C333.547 27.2614 333.835 26.5227 333.994 25.7273H336.131C335.941 26.7955 335.585 27.7917 335.062 28.7159C334.547 29.6326 333.888 30.4356 333.085 31.125C332.29 31.8144 331.373 32.3523 330.335 32.7386C329.297 33.125 328.157 33.3182 326.915 33.3182C324.96 33.3182 323.225 32.8295 321.71 31.8523C320.195 30.8674 319.006 29.4811 318.142 27.6932C317.286 25.9053 316.858 23.7955 316.858 21.3636C316.858 18.9318 317.286 16.822 318.142 15.0341C319.006 13.2462 320.195 11.8636 321.71 10.8864C323.225 9.90151 324.96 9.40909 326.915 9.40909C328.157 9.40909 329.297 9.60227 330.335 9.98864C331.373 10.3674 332.29 10.9053 333.085 11.6023C333.888 12.2917 334.547 13.0947 335.062 14.0114C335.585 14.928 335.941 15.9242 336.131 17ZM354.611 33L346.599 22.0227H343.247V33H341.122V9.72727H343.247V20.125H345.349L353.929 9.72727H356.452L347.827 20.2159L357.156 33H354.611ZM361.188 33H358.96L367.426 9.72727H369.699L378.165 33H375.938L368.642 12.4886H368.483L361.188 33ZM362.79 24.0795H374.335V25.9886H362.79V24.0795Z" fill="#3E3E3F"/>
<path d="M260.996 33.1648C260.488 33.1648 260.052 32.9828 259.688 32.619C259.324 32.2551 259.142 31.8191 259.142 31.3111C259.142 30.803 259.324 30.3671 259.688 30.0032C260.052 29.6393 260.488 29.4574 260.996 29.4574C261.504 29.4574 261.94 29.6393 262.304 30.0032C262.667 30.3671 262.849 30.803 262.849 31.3111C262.849 31.6475 262.764 31.9564 262.592 32.2379C262.427 32.5194 262.204 32.746 261.923 32.9176C261.648 33.0824 261.339 33.1648 260.996 33.1648Z" fill="#3E3E3F"/>
</svg>
