<svg width="30" height="22" viewBox="0 0 30 22" fill="none" xmlns="http://www.w3.org/2000/svg">
<path d="M1.805 2.65772L22.395 2.65771C23.1157 2.65771 23.7 2.06276 23.7 1.32886C23.7 0.594949 23.1157 0 22.395 0L1.805 5.1924e-06C1.08427 5.36841e-06 0.5 0.594955 0.5 1.32886C0.5 2.06277 1.08427 2.65772 1.805 2.65772Z" fill="#B982FE"/>
<path d="M1.805 7.38254C1.08427 7.38254 0.5 7.97749 0.5 8.7114C0.5 9.4453 1.08427 10.0403 1.805 10.0403L22.395 10.0403C23.1157 10.0403 23.7 9.4453 23.7 8.7114C23.7 7.97749 23.1157 7.38254 22.395 7.38254L1.805 7.38254Z" fill="#B982FE"/>
<path d="M0.5 16.0939C0.5 15.36 1.08427 14.7651 1.805 14.7651H9.345C10.0657 14.7651 10.65 15.36 10.65 16.0939C10.65 16.8278 10.0657 17.4228 9.345 17.4228H1.805C1.08427 17.4228 0.5 16.8278 0.5 16.0939Z" fill="#B982FE"/>
<path d="M29.0989 12.6839C29.6518 12.0941 29.6305 11.1595 29.0512 10.5964C28.4719 10.0334 27.5541 10.0551 27.0011 10.645L19.7455 18.3851L16.0489 14.4417C15.4959 13.8518 14.5781 13.8301 13.9988 14.3931C13.4195 14.9562 13.3982 15.8908 13.9511 16.4807L18.6966 21.543C18.9702 21.8349 19.3492 22 19.7455 22C20.1417 22 20.5207 21.8349 20.7943 21.543L29.0989 12.6839Z" fill="#B982FE"/>
</svg>
