<svg width="140" height="129" viewBox="0 0 140 129" fill="none" xmlns="http://www.w3.org/2000/svg">
<path d="M69.0243 0L34.9487 57.611H103.1L69.0243 0Z" fill="black"/>
<path d="M34.9487 57.6133L0.873047 115.224H69.0244L34.9487 57.6133Z" fill="black"/>
<path d="M103.099 57.6133L137.175 115.224H69.0236L103.099 57.6133Z" fill="black"/>
<path d="M1.74965 124.845L3.24256 124.715C3.31326 125.313 3.47642 125.805 3.73204 126.191C3.99309 126.572 4.39555 126.882 4.93942 127.121C5.48328 127.355 6.09513 127.472 6.77496 127.472C7.37865 127.472 7.91164 127.382 8.37392 127.203C8.83621 127.023 9.17884 126.779 9.40183 126.469C9.63025 126.153 9.74446 125.81 9.74446 125.441C9.74446 125.065 9.63569 124.739 9.41814 124.462C9.2006 124.179 8.84164 123.942 8.34129 123.752C8.02041 123.627 7.31067 123.434 6.21206 123.173C5.11345 122.906 4.34388 122.656 3.90335 122.422C3.33229 122.123 2.90536 121.753 2.62255 121.313C2.34518 120.867 2.20649 120.369 2.20649 119.82C2.20649 119.216 2.37781 118.653 2.72045 118.131C3.06308 117.604 3.56344 117.204 4.22151 116.932C4.87959 116.66 5.61109 116.524 6.41601 116.524C7.30251 116.524 8.08295 116.668 8.75735 116.956C9.43718 117.239 9.95929 117.658 10.3237 118.213C10.6881 118.767 10.8839 119.396 10.9111 120.097L9.39367 120.211C9.31209 119.455 9.03472 118.884 8.56155 118.498C8.09383 118.112 7.4004 117.919 6.48127 117.919C5.52407 117.919 4.8252 118.096 4.38467 118.449C3.94958 118.797 3.73204 119.219 3.73204 119.714C3.73204 120.143 3.88704 120.497 4.19704 120.774C4.5016 121.052 5.29565 121.337 6.57917 121.631C7.86813 121.919 8.75191 122.172 9.23051 122.39C9.92665 122.71 10.4406 123.118 10.7724 123.613C11.1041 124.103 11.27 124.668 11.27 125.31C11.27 125.946 11.0878 126.547 10.7234 127.113C10.359 127.673 9.8342 128.111 9.14893 128.426C8.4691 128.736 7.70225 128.891 6.84838 128.891C5.76609 128.891 4.85784 128.734 4.12362 128.418C3.39484 128.103 2.82106 127.63 2.40229 126.999C1.98895 126.362 1.7714 125.645 1.74965 124.845ZM12.9505 122.863C12.9505 120.878 13.4835 119.325 14.5495 118.205C15.6155 117.079 16.9915 116.516 18.6774 116.516C19.7815 116.516 20.7768 116.78 21.6633 117.307C22.5498 117.835 23.2241 118.572 23.6864 119.518C24.1542 120.459 24.388 121.528 24.388 122.724C24.388 123.937 24.1433 125.022 23.6538 125.979C23.1643 126.936 22.4709 127.662 21.5735 128.157C20.6761 128.647 19.7081 128.891 18.6693 128.891C17.5435 128.891 16.5373 128.62 15.6508 128.076C14.7643 127.532 14.0927 126.789 13.6358 125.849C13.179 124.908 12.9505 123.912 12.9505 122.863ZM14.5821 122.887C14.5821 124.328 14.9683 125.465 15.7406 126.297C16.5183 127.124 17.4918 127.537 18.6611 127.537C19.8522 127.537 20.8311 127.118 21.598 126.281C22.3703 125.443 22.7564 124.255 22.7564 122.716C22.7564 121.742 22.5905 120.894 22.2588 120.171C21.9325 119.442 21.4511 118.879 20.8148 118.482C20.1839 118.079 19.4742 117.878 18.6856 117.878C17.5652 117.878 16.5999 118.264 15.7895 119.037C14.9846 119.803 14.5821 121.087 14.5821 122.887ZM34.2836 116.728H35.8663V123.638C35.8663 124.84 35.7303 125.794 35.4584 126.501C35.1865 127.208 34.6943 127.785 33.9818 128.231C33.2748 128.671 32.3448 128.891 31.1918 128.891C30.0714 128.891 29.155 128.698 28.4425 128.312C27.7301 127.926 27.2216 127.369 26.917 126.64C26.6124 125.906 26.4601 124.905 26.4601 123.638V116.728H28.0428V123.63C28.0428 124.668 28.138 125.435 28.3283 125.93C28.5241 126.42 28.8559 126.798 29.3236 127.064C29.7968 127.331 30.3732 127.464 31.0531 127.464C32.217 127.464 33.0463 127.2 33.5413 126.672C34.0362 126.145 34.2836 125.131 34.2836 123.63V116.728ZM41.5524 128.688V118.139H37.6121V116.728H47.0917V118.139H43.135V128.688H41.5524ZM48.7722 128.688V116.728H50.3548V121.639H56.5712V116.728H58.1539V128.688H56.5712V123.05H50.3548V128.688H48.7722ZM71.0435 123.997V122.593L76.1096 122.585V127.023C75.3318 127.643 74.5296 128.111 73.703 128.426C72.8763 128.736 72.0278 128.891 71.1577 128.891C69.9829 128.891 68.9142 128.641 67.9516 128.141C66.9944 127.635 66.271 126.906 65.7816 125.955C65.2921 125.003 65.0473 123.94 65.0473 122.765C65.0473 121.601 65.2894 120.516 65.7734 119.51C66.2629 118.498 66.9645 117.748 67.8782 117.258C68.7919 116.769 69.8442 116.524 71.0353 116.524C71.9 116.524 72.6805 116.665 73.3766 116.948C74.0782 117.226 74.6275 117.614 75.0245 118.115C75.4216 118.615 75.7234 119.268 75.9301 120.073L74.5024 120.464C74.323 119.855 74.1 119.377 73.8335 119.028C73.567 118.68 73.1863 118.403 72.6914 118.196C72.1964 117.984 71.6471 117.878 71.0435 117.878C70.3201 117.878 69.6947 117.99 69.1671 118.213C68.6396 118.43 68.2126 118.718 67.8863 119.077C67.5654 119.436 67.3153 119.831 67.1358 120.26C66.8312 121 66.6789 121.802 66.6789 122.667C66.6789 123.733 66.8611 124.625 67.2255 125.343C67.5954 126.061 68.1311 126.594 68.8326 126.942C69.5342 127.29 70.2793 127.464 71.0679 127.464C71.7532 127.464 72.4222 127.333 73.0748 127.072C73.7274 126.806 74.2223 126.523 74.5595 126.224V123.997H71.0435ZM78.4835 128.688V116.728H87.131V118.139H80.0662V121.802H86.6823V123.205H80.0662V127.276H87.4083V128.688H78.4835ZM89.6192 128.688V116.728H94.9218C95.9878 116.728 96.7982 116.837 97.3529 117.054C97.9077 117.266 98.3509 117.644 98.6827 118.188C99.0144 118.732 99.1803 119.333 99.1803 119.991C99.1803 120.84 98.9056 121.555 98.3563 122.137C97.807 122.719 96.9586 123.088 95.8111 123.246C96.2298 123.447 96.548 123.646 96.7655 123.842C97.2278 124.266 97.6656 124.796 98.079 125.432L100.159 128.688H98.1687L96.5861 126.199C96.1238 125.481 95.7431 124.932 95.4439 124.551C95.1448 124.171 94.8756 123.904 94.6363 123.752C94.4024 123.6 94.1631 123.494 93.9184 123.434C93.7389 123.396 93.4452 123.377 93.0373 123.377H91.2018V128.688H89.6192ZM91.2018 122.006H94.6037C95.327 122.006 95.8926 121.933 96.3005 121.786C96.7084 121.634 97.0184 121.394 97.2305 121.068C97.4427 120.736 97.5487 120.377 97.5487 119.991C97.5487 119.425 97.342 118.96 96.9287 118.596C96.5208 118.232 95.8736 118.05 94.9871 118.05H91.2018V122.006ZM104.728 128.688V123.621L100.118 116.728H102.044L104.401 120.334C104.836 121.008 105.242 121.683 105.617 122.357C105.976 121.731 106.411 121.027 106.922 120.244L109.239 116.728H111.083L106.31 123.621V128.688H104.728ZM112.021 122.863C112.021 120.878 112.554 119.325 113.62 118.205C114.686 117.079 116.062 116.516 117.748 116.516C118.852 116.516 119.847 116.78 120.734 117.307C121.62 117.835 122.295 118.572 122.757 119.518C123.225 120.459 123.458 121.528 123.458 122.724C123.458 123.937 123.214 125.022 122.724 125.979C122.235 126.936 121.541 127.662 120.644 128.157C119.747 128.647 118.778 128.891 117.74 128.891C116.614 128.891 115.608 128.62 114.721 128.076C113.835 127.532 113.163 126.789 112.706 125.849C112.249 124.908 112.021 123.912 112.021 122.863ZM113.653 122.887C113.653 124.328 114.039 125.465 114.811 126.297C115.589 127.124 116.562 127.537 117.732 127.537C118.923 127.537 119.902 127.118 120.668 126.281C121.441 125.443 121.827 124.255 121.827 122.716C121.827 121.742 121.661 120.894 121.329 120.171C121.003 119.442 120.522 118.879 119.885 118.482C119.254 118.079 118.545 117.878 117.756 117.878C116.636 117.878 115.67 118.264 114.86 119.037C114.055 119.803 113.653 121.087 113.653 122.887ZM125.49 128.688V116.728H127.113L133.395 126.118V116.728H134.912V128.688H133.289L127.007 119.29V128.688H125.49Z" fill="black"/>
</svg>
