<svg width="25" height="25" viewBox="0 0 25 25" fill="none" xmlns="http://www.w3.org/2000/svg">
<g clip-path="url(#clip0_518_3655)">
<rect width="25" height="25" rx="6" fill="white"/>
<path d="M13.1448 7.31107C13.633 6.82291 14.4244 6.82291 14.9126 7.31107C15.4008 7.79922 15.4008 8.59068 14.9126 9.07884L11.4915 12.5L14.9153 15.9238C15.4035 16.412 15.4035 17.2034 14.9153 17.6916C14.4272 18.1797 13.6357 18.1797 13.1475 17.6916L8.83982 13.3838C8.35167 12.8957 8.35167 12.1042 8.83982 11.6161L13.1448 7.31107Z" fill="#656468"/>
<path fill-rule="evenodd" clip-rule="evenodd" d="M16.0256 3.27978e-07H8.97444C7.65847 -1.20751e-05 6.59491 -2.20982e-05 5.73322 0.070381C4.84532 0.142925 4.06223 0.296407 3.33673 0.666072C2.18685 1.25197 1.25197 2.18685 0.666072 3.33673C0.296407 4.06223 0.142925 4.84532 0.0703811 5.73322C-2.21034e-05 6.59491 -1.20751e-05 7.65845 3.27978e-07 8.97442V16.0256C-1.20751e-05 17.3415 -2.20982e-05 18.4051 0.070381 19.2668C0.142925 20.1547 0.296407 20.9378 0.666072 21.6633C1.25197 22.8132 2.18685 23.748 3.33673 24.3339C4.06223 24.7036 4.84532 24.8571 5.73322 24.9296C6.59491 25 7.65846 25 8.97443 25H16.0256C17.3415 25 18.4051 25 19.2668 24.9296C20.1547 24.8571 20.9378 24.7036 21.6633 24.3339C22.8132 23.748 23.748 22.8132 24.3339 21.6633C24.7036 20.9378 24.8571 20.1547 24.9296 19.2668C25 18.4051 25 17.3415 25 16.0256V8.97443C25 7.65846 25 6.59492 24.9296 5.73322C24.8571 4.84532 24.7036 4.06223 24.3339 3.33673C23.748 2.18685 22.8132 1.25197 21.6633 0.666072C20.9378 0.296407 20.1547 0.142925 19.2668 0.0703811C18.4051 -2.21034e-05 17.3415 -1.20751e-05 16.0256 3.27978e-07ZM4.4717 2.89359C4.78604 2.73342 5.2035 2.62199 5.9368 2.56208C6.68469 2.50097 7.64591 2.5 9.02778 2.5H15.9722C17.3541 2.5 18.3153 2.50097 19.0632 2.56208C19.7965 2.62199 20.214 2.73342 20.5283 2.89359C21.2078 3.2398 21.7602 3.79223 22.1064 4.4717C22.2666 4.78604 22.378 5.2035 22.4379 5.9368C22.499 6.68469 22.5 7.64591 22.5 9.02778V15.9722C22.5 17.3541 22.499 18.3153 22.4379 19.0632C22.378 19.7965 22.2666 20.214 22.1064 20.5283C21.7602 21.2078 21.2078 21.7602 20.5283 22.1064C20.214 22.2666 19.7965 22.378 19.0632 22.4379C18.3153 22.499 17.3541 22.5 15.9722 22.5H9.02777C7.64591 22.5 6.68469 22.499 5.9368 22.4379C5.2035 22.378 4.78604 22.2666 4.4717 22.1064C3.79223 21.7602 3.2398 21.2078 2.89359 20.5283C2.73342 20.214 2.62199 19.7965 2.56208 19.0632C2.50097 18.3153 2.5 17.3541 2.5 15.9722V9.02777C2.5 7.64591 2.50097 6.68469 2.56208 5.9368C2.62199 5.2035 2.73342 4.78604 2.89359 4.4717C3.2398 3.79223 3.79223 3.2398 4.4717 2.89359Z" fill="#656468"/>
</g>
<defs>
<clipPath id="clip0_518_3655">
<rect width="25" height="25" rx="6" fill="white"/>
</clipPath>
</defs>
</svg>
