<svg width="37" height="34" viewBox="0 0 37 34" fill="none" xmlns="http://www.w3.org/2000/svg">
<path fill-rule="evenodd" clip-rule="evenodd" d="M9.99406 3.76889C10.6033 3.76889 10.6898 3.77695 10.7577 3.7921C10.862 3.81538 10.9622 3.85583 11.0549 3.91202C11.1152 3.94858 11.1851 4.00366 11.6425 4.4341L13.6188 6.294L13.6975 6.36822C14.0497 6.70044 14.3869 7.01848 14.7828 7.2526C15.1298 7.45784 15.5028 7.60835 15.8901 7.69945C16.3319 7.80336 16.7815 7.80282 17.2511 7.80224L17.356 7.80216H24.8892C26.3548 7.80216 27.3612 7.80344 28.1414 7.87161C28.9036 7.93821 29.313 8.06032 29.6093 8.22178C30.2867 8.59089 30.8374 9.17986 31.1826 9.90428C31.4129 10.3877 31.5182 10.7321 31.5553 12.0977C31.5801 13.0086 32.2906 13.7255 33.1424 13.699C33.9941 13.6726 34.6645 12.9127 34.6397 12.0018C34.5963 10.4052 34.4565 9.50704 33.932 8.40612C33.291 7.06077 32.2682 5.96696 31.0102 5.28147C30.2064 4.84347 29.3457 4.66585 28.3927 4.58259C27.472 4.50214 26.3391 4.50215 24.9539 4.50217H24.9539L17.356 4.50217C16.715 4.50217 16.6241 4.49325 16.5529 4.4765C16.4561 4.45372 16.3628 4.41609 16.2761 4.36478C16.2122 4.32703 16.1386 4.26956 15.6573 3.81665L13.681 1.95675L13.6061 1.88619C13.2713 1.57041 12.9509 1.2682 12.577 1.04144C12.2063 0.816693 11.8053 0.654868 11.3883 0.561756C10.9675 0.467814 10.5403 0.468309 10.0938 0.468826L9.99406 0.468903L9.93271 0.468903C8.61651 0.468885 7.54004 0.468871 6.66382 0.541701C5.75731 0.617047 4.93692 0.777638 4.16489 1.1744C2.79631 1.87775 1.69237 3.05835 1.03469 4.52196C0.66369 5.3476 0.513527 6.22496 0.443072 7.19441C0.374972 8.13147 0.374985 9.28267 0.375001 10.6902V10.6903V21.2545V21.2546C0.374983 22.736 0.374969 23.9475 0.450193 24.9322C0.528056 25.9513 0.69414 26.8718 1.1037 27.7314C1.74468 29.0768 2.76747 30.1706 4.02547 30.8561C4.82927 31.2941 5.68998 31.4717 6.64297 31.555C7.56368 31.6354 8.69656 31.6354 10.0818 31.6354H14.676C15.5281 31.6354 16.2188 30.8967 16.2188 29.9854C16.2188 29.0741 15.5281 28.3354 14.676 28.3354H10.1464C8.68084 28.3354 7.67443 28.3341 6.89425 28.2659C6.13208 28.1993 5.72266 28.0772 5.42635 27.9158C4.74897 27.5467 4.19824 26.9577 3.85309 26.2333C3.70212 25.9164 3.58793 25.4785 3.52566 24.6634C3.46192 23.8291 3.46072 22.7528 3.46072 21.1854V10.7559C3.46072 9.26674 3.4618 8.24418 3.51951 7.45012C3.57592 6.67392 3.67948 6.25497 3.81593 5.9513C4.17007 5.1632 4.7645 4.52749 5.50142 4.14877C5.78537 4.00284 6.17712 3.89209 6.90292 3.83176C7.64542 3.77005 8.60159 3.76889 9.99406 3.76889ZM27.8036 15.1355C30.1714 15.1355 32.0893 17.1865 32.0893 19.7188C32.0893 22.2511 30.1714 24.3021 27.8036 24.3021C25.4357 24.3021 23.5179 22.2511 23.5179 19.7188C23.5179 17.1865 25.4357 15.1355 27.8036 15.1355ZM19.2321 32.3172V31.1771C19.2321 27.1667 24.9429 26.0209 27.8036 26.0209C30.6643 26.0209 36.375 27.1667 36.375 31.1771V32.3172C36.375 32.9532 35.8929 33.4688 35.2982 33.4688H20.3089C19.7142 33.4688 19.2321 32.9532 19.2321 32.3172Z" fill="#DD4746"/>
</svg>
