<svg width="23" height="16" viewBox="0 0 23 16" fill="none" xmlns="http://www.w3.org/2000/svg">
<path d="M11.1519 0C16.7275 0 22.3038 4.54361 22.3038 7.935C22.3038 11.3264 16.7275 15.87 11.1519 15.87C5.57625 15.87 0 11.3264 0 7.935C0 4.54361 5.57625 0 11.1519 0ZM11.1519 1.93014C6.56508 1.93014 1.93014 5.70676 1.93014 7.935C1.93014 10.1632 6.56508 13.9399 11.1519 13.9399C15.7387 13.9399 20.3737 10.1632 20.3737 7.935C20.3737 5.70676 15.7387 1.93014 11.1519 1.93014ZM11.1519 4.28919C13.1654 4.28919 14.7977 5.92147 14.7977 7.935C14.7977 9.94853 13.1654 11.5808 11.1519 11.5808C9.13837 11.5808 7.50608 9.94853 7.50608 7.935C7.50608 5.92147 9.13837 4.28919 11.1519 4.28919ZM11.1519 6.21932C10.2044 6.21932 9.43622 6.98746 9.43622 7.935C9.43622 8.88254 10.2044 9.65068 11.1519 9.65068C12.0994 9.65068 12.8676 8.88254 12.8676 7.935C12.8676 6.98746 12.0994 6.21932 11.1519 6.21932Z" fill="#656468"/>
</svg>
