<svg width="24" height="26" viewBox="0 0 24 26" fill="none" xmlns="http://www.w3.org/2000/svg">
<path d="M18.8715 18.6987C18.8715 19.7608 18.0105 20.6218 16.9485 20.6218C15.8864 20.6218 15.0254 19.7608 15.0254 18.6987C15.0254 17.6366 15.8864 16.7756 16.9485 16.7756C18.0105 16.7756 18.8715 17.6366 18.8715 18.6987Z" fill="#656468"/>
<path fill-rule="evenodd" clip-rule="evenodd" d="M7.33308 0.75C7.97033 0.75 8.48693 1.26659 8.48693 1.90385V2.67363C8.71736 2.67307 8.95723 2.67307 9.20695 2.67308H15.7157C15.9654 2.67307 16.2052 2.67307 16.4356 2.67363V1.90385C16.4356 1.26659 16.9522 0.75 17.5895 0.75C18.2267 0.75 18.7433 1.26659 18.7433 1.90385V2.74102C19.5482 2.80918 20.2598 2.95165 20.9197 3.28791C21.9811 3.82874 22.8441 4.6917 23.3849 5.75313C23.7262 6.42283 23.8678 7.14568 23.9348 7.96528C23.9998 8.76069 23.9998 9.74242 23.9998 10.9572V17.4659C23.9998 18.6807 23.9998 19.6624 23.9348 20.4578C23.8678 21.2774 23.7262 22.0002 23.3849 22.6699C22.8441 23.7314 21.9811 24.5943 20.9197 25.1352C20.25 25.4764 19.5272 25.6181 18.7076 25.685C17.9122 25.75 16.9304 25.75 15.7157 25.75H9.20694C7.9922 25.75 7.01047 25.75 6.21505 25.685C5.39545 25.6181 4.67261 25.4764 4.00291 25.1352C2.94148 24.5943 2.07851 23.7314 1.53769 22.6699C1.19646 22.0002 1.05478 21.2774 0.987819 20.4578C0.922831 19.6624 0.92284 18.6807 0.922852 17.4659V10.9572C0.92284 9.74243 0.922831 8.76069 0.987819 7.96528C1.05478 7.14568 1.19646 6.42283 1.53769 5.75313C2.07851 4.6917 2.94148 3.82874 4.00291 3.28791C4.66283 2.95166 5.37437 2.80919 6.17923 2.74102V1.90385C6.17923 1.26659 6.69583 0.75 7.33308 0.75ZM6.17923 5.0592C5.63811 5.1178 5.30713 5.21336 5.05058 5.34408C4.42337 5.66366 3.91343 6.17359 3.59386 6.8008C3.44601 7.09096 3.34315 7.47631 3.28785 8.1532C3.24141 8.72154 3.2326 9.42334 3.23093 10.3654H21.6917C21.69 9.42335 21.6812 8.72154 21.6348 8.1532C21.5795 7.47631 21.4766 7.09096 21.3288 6.8008C21.0092 6.17359 20.4993 5.66366 19.8721 5.34408C19.6155 5.21335 19.2845 5.1178 18.7433 5.05919V6.00641C18.7433 6.64366 18.2267 7.16026 17.5895 7.16026C16.9522 7.16026 16.4356 6.64366 16.4356 6.00641V4.98143C16.1959 4.98081 15.9401 4.98077 15.6664 4.98077H9.25619C8.98252 4.98077 8.72673 4.98081 8.48693 4.98143V6.00641C8.48693 6.64366 7.97033 7.16026 7.33308 7.16026C6.69583 7.16026 6.17923 6.64366 6.17923 6.00641V5.0592ZM21.6921 12.6731H3.23055V17.4167C3.23055 18.6922 3.23144 19.5795 3.28785 20.2699C3.34315 20.9468 3.44601 21.3321 3.59386 21.6223C3.91343 22.2495 4.42337 22.7594 5.05058 23.079C5.34074 23.2268 5.72608 23.3297 6.40298 23.385C7.09334 23.4414 7.98062 23.4423 9.25618 23.4423H15.6664C16.942 23.4423 17.8293 23.4414 18.5197 23.385C19.1965 23.3297 19.5819 23.2268 19.8721 23.079C20.4993 22.7594 21.0092 22.2495 21.3288 21.6223C21.4766 21.3321 21.5795 20.9468 21.6348 20.2699C21.6912 19.5795 21.6921 18.6922 21.6921 17.4167V12.6731Z" fill="#656468"/>
</svg>
