<svg width="62" height="55" viewBox="0 0 62 55" fill="none" xmlns="http://www.w3.org/2000/svg">
<rect width="61.3333" height="55" rx="4" fill="#F0E5FF"/>
<path fill-rule="evenodd" clip-rule="evenodd" d="M30.668 11C29.2872 11 28.168 12.1193 28.168 13.5C28.168 14.8807 29.2872 16 30.668 16C32.0488 16 33.168 14.8807 33.168 13.5C33.168 12.1193 32.0488 11 30.668 11ZM25.375 12C26.0279 9.6915 28.1504 8 30.668 8C33.1856 8 35.308 9.6915 35.961 12H46.668C47.4964 12 48.168 12.6716 48.168 13.5C48.168 14.3284 47.4964 15 46.668 15H35.961C35.308 17.3085 33.1856 19 30.668 19C28.1504 19 26.0279 17.3085 25.375 15H14.668C13.8395 15 13.168 14.3284 13.168 13.5C13.168 12.6716 13.8395 12 14.668 12H25.375ZM42.668 25C41.2872 25 40.168 26.1192 40.168 27.5C40.168 28.8808 41.2872 30 42.668 30C44.0488 30 45.168 28.8808 45.168 27.5C45.168 26.1192 44.0488 25 42.668 25ZM37.375 26C38.028 23.6914 40.1504 22 42.668 22C45.7056 22 48.168 24.4624 48.168 27.5C48.168 30.5376 45.7056 33 42.668 33C40.1504 33 38.028 31.3086 37.375 29H14.668C13.8395 29 13.168 28.3284 13.168 27.5C13.168 26.6716 13.8395 26 14.668 26H37.375ZM18.668 39C17.2872 39 16.168 40.1192 16.168 41.5C16.168 42.8808 17.2872 44 18.668 44C20.0487 44 21.168 42.8808 21.168 41.5C21.168 40.1192 20.0487 39 18.668 39ZM13.168 41.5C13.168 38.4624 15.6304 36 18.668 36C21.1855 36 23.308 37.6914 23.9609 40H46.668C47.4964 40 48.168 40.6716 48.168 41.5C48.168 42.3284 47.4964 43 46.668 43H23.9609C23.308 45.3086 21.1855 47 18.668 47C15.6304 47 13.168 44.5376 13.168 41.5Z" fill="#656468"/>
</svg>
