<svg width="26" height="26" viewBox="0 0 26 26" fill="none" xmlns="http://www.w3.org/2000/svg">
<path fill-rule="evenodd" clip-rule="evenodd" d="M10.8571 0.5C5.13705 0.5 0.5 5.13705 0.5 10.8571C0.5 16.5772 5.13705 21.2143 10.8571 21.2143C13.2538 21.2143 15.4603 20.4002 17.2153 19.0336L23.3051 25.1234C23.8072 25.6255 24.6213 25.6255 25.1234 25.1234C25.6255 24.6213 25.6255 23.8073 25.1234 23.3051L19.0336 17.2153C20.4002 15.4603 21.2143 13.2538 21.2143 10.8571C21.2143 5.13705 16.5772 0.5 10.8571 0.5ZM10.8571 3.07143C6.55721 3.07143 3.07143 6.55721 3.07143 10.8571C3.07143 15.1571 6.55721 18.6429 10.8571 18.6429C15.1571 18.6429 18.6429 15.1571 18.6429 10.8571C18.6429 6.55721 15.1571 3.07143 10.8571 3.07143Z" fill="#656468"/>
</svg>
