<svg width="26" height="26" viewBox="0 0 26 26" fill="none" xmlns="http://www.w3.org/2000/svg">
<path d="M0.489598 0.489546C1.14233 -0.163184 2.20062 -0.163182 2.85335 0.489552L13 10.6362L23.1467 0.489592C23.7994 -0.163139 24.8577 -0.163137 25.5105 0.489596C26.1632 1.14233 26.1632 2.20062 25.5104 2.85335L15.3637 13L25.5104 23.1467C26.1631 23.7994 26.1631 24.8577 25.5104 25.5105C24.8577 26.1632 23.7994 26.1632 23.1467 25.5104L13 15.3637L2.8533 25.5104C2.20057 26.1631 1.14228 26.1631 0.489547 25.5104C-0.163184 24.8576 -0.163182 23.7994 0.489552 23.1466L10.6362 13L0.489592 2.8533C-0.163139 2.20056 -0.163136 1.14228 0.489598 0.489546Z" fill="#656468"/>
</svg>
