<svg width="25" height="26" viewBox="0 0 25 26" fill="none" xmlns="http://www.w3.org/2000/svg">
<path fill-rule="evenodd" clip-rule="evenodd" d="M15.5702 8.75219C16.1903 8.79095 16.6616 9.32506 16.6228 9.94518L15.9978 19.9452C15.9591 20.5653 15.4249 21.0366 14.8048 20.9978C14.1847 20.9591 13.7134 20.4249 13.7522 19.8048L14.3772 9.80482C14.4159 9.18471 14.9501 8.71343 15.5702 8.75219Z" fill="#656468"/>
<path fill-rule="evenodd" clip-rule="evenodd" d="M9.17982 8.75219C8.55971 8.79095 8.08843 9.32506 8.12719 9.94518L8.75219 19.9452C8.79095 20.5653 9.32506 21.0366 9.94518 20.9978C10.5653 20.9591 11.0366 20.4249 10.9978 19.8048L10.3728 9.80482C10.3341 9.18471 9.79993 8.71343 9.17982 8.75219Z" fill="#656468"/>
<path fill-rule="evenodd" clip-rule="evenodd" d="M1.125 3.75C0.50368 3.75 0 4.25368 0 4.875C0 5.49632 0.50368 6 1.125 6H2.60054L4.04381 21.395C4.10049 21.9998 4.14899 22.5172 4.2226 22.9417C4.30026 23.3895 4.41877 23.8209 4.66121 24.2284C5.02896 24.8465 5.5723 25.3413 6.22208 25.6498C6.65045 25.8531 7.091 25.9308 7.54412 25.9664C7.97359 26 8.49336 26 9.10083 26H15.6492C16.2566 26 16.7764 26 17.2059 25.9664C17.659 25.9308 18.0996 25.8531 18.5279 25.6498C19.1777 25.3413 19.721 24.8465 20.0888 24.2284C20.3312 23.8209 20.4497 23.3895 20.5274 22.9417C20.601 22.5172 20.6495 21.9998 20.7062 21.395L22.1495 6H23.625C24.2463 6 24.75 5.49632 24.75 4.875C24.75 4.25368 24.2463 3.75 23.625 3.75H17.1196C16.6117 1.59997 14.6802 0 12.375 0C10.0698 0 8.13832 1.59997 7.63045 3.75H1.125ZM6.28009 21.1434C6.34176 21.8012 6.38278 22.2301 6.43951 22.5572C6.49387 22.8707 6.54935 23.0015 6.59489 23.078C6.73438 23.3125 6.94048 23.5002 7.18695 23.6172C7.26741 23.6553 7.4028 23.6984 7.71996 23.7232C8.05096 23.7492 8.48182 23.75 9.14254 23.75H15.6075C16.2682 23.75 16.699 23.7492 17.03 23.7232C17.3472 23.6984 17.4826 23.6553 17.5631 23.6172C17.8095 23.5002 18.0156 23.3125 18.1551 23.078C18.2006 23.0015 18.2561 22.8707 18.3105 22.5572C18.3672 22.2301 18.4082 21.8012 18.4699 21.1434L19.8896 6H4.8604L6.28009 21.1434ZM12.375 2.25C11.3279 2.25 10.4239 2.86314 10.0026 3.75H14.7474C14.3261 2.86314 13.4221 2.25 12.375 2.25Z" fill="#656468"/>
</svg>
