<svg width="26" height="27" viewBox="0 0 26 27" fill="none" xmlns="http://www.w3.org/2000/svg">
<path d="M13 0.101562C13.7179 0.101562 14.2999 0.683564 14.2999 1.4015L14.2999 11.8015L24.6999 11.8016C25.4179 11.8016 25.9999 12.3836 25.9999 13.1015C25.9999 13.8194 25.4179 14.4014 24.6999 14.4014L14.2999 14.4L14.2999 24.8016C14.2999 25.5196 13.7179 26.1016 13 26.1016C12.2821 26.1016 11.7001 25.5196 11.7001 24.8016L11.6999 14.4L1.29992 14.4014C0.581995 14.4014 0 13.8194 0 13.1015C0 12.3836 0.581995 11.8016 1.29992 11.8016L11.6999 11.8015L11.7001 1.4015C11.7001 0.683564 12.2821 0.101562 13 0.101562Z" fill="#F34F4E"/>
</svg>
