<svg width="18" height="20" viewBox="0 0 18 20" fill="none" xmlns="http://www.w3.org/2000/svg">
<path fill-rule="evenodd" clip-rule="evenodd" d="M8.84854 0C9.37453 0 9.80092 0.426395 9.80092 0.952381V12.5156L14.6301 7.68636C15.0021 7.31443 15.6051 7.31443 15.977 7.68636C16.3489 8.05829 16.3489 8.6613 15.977 9.03323L9.52198 15.4883C9.15005 15.8602 8.54704 15.8602 8.17511 15.4883L1.72009 9.03323C1.34816 8.6613 1.34816 8.05829 1.72009 7.68636C2.09202 7.31443 2.69503 7.31443 3.06696 7.68636L7.89616 12.5156V0.952381C7.89616 0.426395 8.32256 0 8.84854 0ZM0.382935 19.0476C0.382935 18.5216 0.80933 18.0952 1.33532 18.0952H16.3618C16.8878 18.0952 17.3141 18.5216 17.3141 19.0476C17.3141 19.5736 16.8878 20 16.3618 20H1.33532C0.80933 20 0.382935 19.5736 0.382935 19.0476Z" fill="#656468"/>
</svg>
