<svg width="34" height="35" viewBox="0 0 34 35" fill="none" xmlns="http://www.w3.org/2000/svg">
<path d="M23.3282 24.7437C22.679 25.263 21.7338 25.1618 21.2089 24.5197C21.186 24.493 20.8781 24.1445 20.3163 23.7934C19.6717 23.3905 18.6836 22.9716 17.3318 22.9716C15.9799 22.9716 14.9919 23.3905 14.3472 23.7934C14.0255 23.9944 13.705 24.231 13.4546 24.5197C12.9298 25.1618 11.9845 25.263 11.3354 24.7437C10.682 24.221 10.5761 23.2677 11.0988 22.6143C11.5573 22.0616 12.1347 21.6031 12.7413 21.2239C13.78 20.5747 15.317 19.9416 17.3318 19.9416C19.3466 19.9416 20.8835 20.5747 21.9222 21.2239C22.5266 21.6017 23.1106 22.0603 23.5648 22.6143C24.0875 23.2677 23.9816 24.221 23.3282 24.7437Z" fill="#DD4746"/>
<path d="M14.3859 14.5551C14.3859 15.7172 13.4438 16.6593 12.2817 16.6593C11.1196 16.6593 10.1776 15.7172 10.1776 14.5551C10.1776 13.393 11.1196 12.4509 12.2817 12.4509C13.4438 12.4509 14.3859 13.393 14.3859 14.5551Z" fill="#DD4746"/>
<path d="M22.3817 16.6593C23.5438 16.6593 24.4859 15.7172 24.4859 14.5551C24.4859 13.393 23.5438 12.4509 22.3817 12.4509C21.2196 12.4509 20.2776 13.393 20.2776 14.5551C20.2776 15.7172 21.2196 16.6593 22.3817 16.6593Z" fill="#DD4746"/>
<path fill-rule="evenodd" clip-rule="evenodd" d="M17.3317 0.835938C8.12792 0.835938 0.666748 8.29711 0.666748 17.5009C0.666748 26.7048 8.12792 34.1659 17.3317 34.1659C26.5356 34.1659 33.9967 26.7048 33.9967 17.5009C33.9967 8.29711 26.5356 0.835938 17.3317 0.835938ZM3.69675 17.5009C3.69675 9.97054 9.80135 3.86594 17.3317 3.86594C24.8622 3.86594 30.9668 9.97054 30.9668 17.5009C30.9668 25.0313 24.8622 31.1359 17.3317 31.1359C9.80135 31.1359 3.69675 25.0313 3.69675 17.5009Z" fill="#DD4746"/>
</svg>
