<svg width="32" height="30" viewBox="0 0 32 30" fill="none" xmlns="http://www.w3.org/2000/svg">
<rect width="31.3333" height="30" rx="4" fill="#E8E8E8"/>
<path fill-rule="evenodd" clip-rule="evenodd" d="M15.6667 4C14.7461 4 14 4.74619 14 5.66667C14 6.58715 14.7461 7.33333 15.6667 7.33333C16.5872 7.33333 17.3333 6.58715 17.3333 5.66667C17.3333 4.74619 16.5872 4 15.6667 4ZM12.138 4.66667C12.5733 3.12767 13.9883 2 15.6667 2C17.3451 2 18.76 3.12767 19.1953 4.66667H26.3333C26.8856 4.66667 27.3333 5.11439 27.3333 5.66667C27.3333 6.21895 26.8856 6.66667 26.3333 6.66667H19.1953C18.76 8.20567 17.3451 9.33333 15.6667 9.33333C13.9883 9.33333 12.5733 8.20567 12.138 6.66667H5C4.44772 6.66667 4 6.21895 4 5.66667C4 5.11439 4.44772 4.66667 5 4.66667H12.138ZM23.6667 13.3333C22.7461 13.3333 22 14.0795 22 15C22 15.9205 22.7461 16.6667 23.6667 16.6667C24.5872 16.6667 25.3333 15.9205 25.3333 15C25.3333 14.0795 24.5872 13.3333 23.6667 13.3333ZM20.138 14C20.5733 12.4609 21.9883 11.3333 23.6667 11.3333C25.6917 11.3333 27.3333 12.9749 27.3333 15C27.3333 17.0251 25.6917 18.6667 23.6667 18.6667C21.9883 18.6667 20.5733 17.5391 20.138 16H5C4.44772 16 4 15.5523 4 15C4 14.4477 4.44772 14 5 14H20.138ZM7.66667 22.6667C6.74619 22.6667 6 23.4128 6 24.3333C6 25.2539 6.74619 26 7.66667 26C8.58715 26 9.33333 25.2539 9.33333 24.3333C9.33333 23.4128 8.58715 22.6667 7.66667 22.6667ZM4 24.3333C4 22.3083 5.64163 20.6667 7.66667 20.6667C9.34504 20.6667 10.76 21.7943 11.1953 23.3333H26.3333C26.8856 23.3333 27.3333 23.7811 27.3333 24.3333C27.3333 24.8856 26.8856 25.3333 26.3333 25.3333H11.1953C10.76 26.8724 9.34504 28 7.66667 28C5.64163 28 4 26.3584 4 24.3333Z" fill="#F34F4E"/>
</svg>
