<svg width="35" height="35" viewBox="0 0 35 35" fill="none" xmlns="http://www.w3.org/2000/svg">
<path fill-rule="evenodd" clip-rule="evenodd" d="M4.01944 1.04918C5.51583 0.24938 6.98803 0 10.0791 0H15.7518C16.7186 0 17.5025 0.783502 17.5025 1.75C17.5025 2.7165 16.7186 3.5 15.7518 3.5H10.0791C7.1494 3.5 6.38851 3.75187 5.67045 4.13566C5.00496 4.49136 4.4932 5.00284 4.13735 5.66783C3.75341 6.3853 3.5014 7.14556 3.5014 10.0734V24.9266C3.5014 27.8544 3.75341 28.6147 4.13735 29.3322C4.4932 29.9972 5.00496 30.5086 5.67045 30.8643C6.38851 31.2481 7.1494 31.5 10.0791 31.5H15.7518C16.7186 31.5 17.5025 32.2835 17.5025 33.25C17.5025 34.2165 16.7186 35 15.7518 35H10.0791C6.98803 35 5.51583 34.7506 4.01944 33.9508C2.74381 33.269 1.73217 32.258 1.0499 30.983C0.249536 29.4874 0 28.0158 0 24.9266V10.0734C0 6.98416 0.249536 5.51265 1.0499 4.01699C1.73217 2.74201 2.74381 1.73099 4.01944 1.04918Z" fill="#656468"/>
<path fill-rule="evenodd" clip-rule="evenodd" d="M25.9753 10.2274C26.659 9.54401 27.7675 9.54401 28.4511 10.2274L34.4872 16.261C34.8156 16.5892 35 17.0343 35 17.4985C35 17.9626 34.8156 18.4077 34.4872 18.7359L28.4512 24.7696C27.7675 25.453 26.659 25.453 25.9753 24.7696C25.2916 24.0862 25.2916 22.9781 25.9753 22.2947L29.0227 19.2485H15.3628C14.3959 19.2485 13.6121 18.465 13.6121 17.4985C13.6121 16.532 14.3959 15.7485 15.3628 15.7485H29.0227L25.9753 12.7023C25.2916 12.0189 25.2916 10.9109 25.9753 10.2274Z" fill="#656468"/>
</svg>
