<svg width="21" height="20" viewBox="0 0 21 20" fill="none" xmlns="http://www.w3.org/2000/svg">
<path fill-rule="evenodd" clip-rule="evenodd" d="M2.68204 0.600298C3.53838 0.142318 4.3807 0 6.14435 0H8.24797C8.80646 0 9.25921 0.452746 9.25921 1.01124C9.25921 1.56973 8.80646 2.02247 8.24797 2.02247H6.14435C4.47394 2.02247 4.04255 2.16622 3.63583 2.38374C3.25847 2.58555 2.96837 2.87566 2.76655 3.25302C2.54904 3.65974 2.40528 4.09113 2.40528 5.76154V14.2385C2.40528 15.9089 2.54904 16.3403 2.76655 16.747C2.96837 17.1243 3.25847 17.4144 3.63583 17.6163C4.04255 17.8338 4.47394 17.9775 6.14435 17.9775H14.6213C16.2917 17.9775 16.7231 17.8338 17.1298 17.6163C17.5071 17.4144 17.7973 17.1243 17.9991 16.747C18.2166 16.3403 18.3603 15.9089 18.3603 14.2385V12.1348C18.3603 11.5763 18.8131 11.1236 19.3716 11.1236C19.9301 11.1236 20.3828 11.5763 20.3828 12.1348V14.2385C20.3828 16.0021 20.2405 16.8444 19.7825 17.7008C19.3922 18.4306 18.8134 19.0094 18.0836 19.3997C17.2272 19.8577 16.3849 20 14.6213 20H6.14435C4.3807 20 3.53838 19.8577 2.68204 19.3997C1.95222 19.0094 1.37342 18.4306 0.983111 17.7008C0.525131 16.8444 0.382812 16.0021 0.382812 14.2385V5.76154C0.382812 3.99789 0.525131 3.15557 0.983111 2.29922C1.37342 1.56941 1.95222 0.990606 2.68204 0.600298Z" fill="#656468"/>
<path fill-rule="evenodd" clip-rule="evenodd" d="M12.63 1.01124C12.63 0.452746 13.0827 0 13.6412 0H19.3716C19.9301 0 20.3828 0.452746 20.3828 1.01124V6.74157C20.3828 7.30006 19.9301 7.75281 19.3716 7.75281C18.8131 7.75281 18.3604 7.30006 18.3604 6.74157V3.45258L10.9855 10.8274C10.5906 11.2223 9.95034 11.2223 9.55543 10.8274C9.16052 10.4325 9.16052 9.79222 9.55543 9.39731L16.9303 2.02247H13.6412C13.0827 2.02247 12.63 1.56973 12.63 1.01124Z" fill="#656468"/>
</svg>
